<svg xmlns="http://www.w3.org/2000/svg" height="24" viewBox="0 -960 960 960" width="24"><path d="M351.681-142.477q-36.796 0-63-26.204t-26.204-63q0-36.797 26.204-62.558 26.204-25.761 63-25.761 36.797 0 62.558 25.761Q440-268.478 440-231.681q0 36.796-25.761 63t-62.558 26.204Zm257.038 0q-36.632 0-62.675-26.204-26.044-26.204-26.044-63 0-36.797 25.991-62.558Q571.981-320 608.479-320q36.73 0 62.887 25.761 26.157 25.761 26.157 62.558 0 36.796-26.086 63-26.087 26.204-62.718 26.204ZM351.681-391.521q-36.796 0-63-25.991T262.477-480q0-36.957 26.204-62.718 26.204-25.761 63-25.761 36.797 0 62.558 25.761Q440-516.957 440-480.283q0 36.674-25.761 62.718-25.761 26.044-62.558 26.044Zm257.038 0q-36.632 0-62.675-25.991Q520-443.503 520-480q0-36.957 25.991-62.718 25.99-25.761 62.488-25.761 36.73 0 62.887 25.761 26.157 25.761 26.157 62.435 0 36.674-26.086 62.718-26.087 26.044-62.718 26.044ZM351.681-640q-36.796 0-63-25.991-26.204-25.99-26.204-62.488 0-36.73 26.204-62.887 26.204-26.157 63-26.157 36.797 0 62.558 26.086Q440-765.35 440-728.719q0 36.632-25.761 62.675Q388.478-640 351.681-640Zm257.038 0q-36.632 0-62.675-25.991Q520-691.981 520-728.479q0-36.73 25.991-62.887 25.99-26.157 62.488-26.157 36.73 0 62.887 26.086 26.157 26.087 26.157 62.718 0 36.632-26.086 62.675Q645.35-640 608.719-640Z"/></svg>